<svg xmlns="http://www.w3.org/2000/svg" viewBox="0 0 96 96">
  <defs>
    <linearGradient id="bg" x1="0" y1="0" x2="1" y2="1">
      <stop offset="0" stop-color="#0f2418"/>
      <stop offset="1" stop-color="#081209"/>
    </linearGradient>
    <linearGradient id="leaf" x1="0" y1="1" x2="1" y2="0">
      <stop offset="0" stop-color="#3bae6e"/>
      <stop offset="1" stop-color="#8ee0ae"/>
    </linearGradient>
  </defs>
  <rect width="96" height="96" rx="22" fill="url(#bg)"/>
  <!-- plate -->
  <circle cx="48" cy="50" r="26" fill="none" stroke="#3d5c4a" stroke-width="3"/>
  <circle cx="48" cy="50" r="17" fill="none" stroke="#3d5c4a" stroke-width="2" opacity="0.6"/>
  <!-- fork -->
  <path d="M14 30v12a4 4 0 0 0 4 4v22M11 30v9m6-9v9" fill="none" stroke="#3d5c4a" stroke-width="3" stroke-linecap="round"/>
  <!-- knife -->
  <path d="M81 30c3 6 3 13-1 17v21" fill="none" stroke="#3d5c4a" stroke-width="3" stroke-linecap="round"/>
  <!-- leaf on plate -->
  <path d="M48 62c-7-4-10-10-7-17 7-3 13 0 16 6 2 5 0 9-4 11-1.7.8-3.4.8-5 0z" fill="url(#leaf)"/>
  <path d="M44 59c3-4 7-7 11-8" fill="none" stroke="#0f2418" stroke-width="2" stroke-linecap="round"/>
  <!-- checkmark badge -->
  <circle cx="68" cy="70" r="11" fill="#3bae6e"/>
  <path d="M63 70l3.5 3.5L74 66" fill="none" stroke="#081209" stroke-width="2.5" stroke-linecap="round" stroke-linejoin="round"/>
</svg>
