<svg xmlns="http://www.w3.org/2000/svg" viewBox="0 0 96 96">
  <defs>
    <linearGradient id="bg" x1="0" y1="0" x2="1" y2="1">
      <stop offset="0" stop-color="#2a1610"/>
      <stop offset="1" stop-color="#120a07"/>
    </linearGradient>
    <linearGradient id="flame" x1="0.5" y1="1" x2="0.5" y2="0">
      <stop offset="0" stop-color="#e2552c"/>
      <stop offset="0.6" stop-color="#f08a3c"/>
      <stop offset="1" stop-color="#f7c14b"/>
    </linearGradient>
  </defs>
  <rect width="96" height="96" rx="22" fill="url(#bg)"/>
  <!-- kamado egg silhouette -->
  <path d="M48 18c14 0 24 12.5 24 28 0 13-8.5 23-19 25v5h-10v-5c-10.5-2-19-12-19-25 0-15.5 10-28 24-28z" fill="none" stroke="#5c4438" stroke-width="3"/>
  <line x1="30" y1="52" x2="66" y2="52" stroke="#5c4438" stroke-width="3"/>
  <!-- flame -->
  <path d="M48 28c4.5 6.5 9 9.8 9 15.2 0 5.5-4 9.3-9 9.3s-9-3.8-9-9.3c0-3 1.3-5.4 3.4-8 1.2 1.7 2.4 2.6 3.6 2.8-.4-3.6.4-7 2-10z" fill="url(#flame)"/>
</svg>
