<svg xmlns="http://www.w3.org/2000/svg" viewBox="0 0 440 956" font-family="-apple-system, 'Helvetica Neue', Arial, sans-serif">
  <defs>
    <linearGradient id="hero" x1="0" y1="0" x2="1" y2="1">
      <stop offset="0" stop-color="#3a1d10"/>
      <stop offset="1" stop-color="#1c110a"/>
    </linearGradient>
    <linearGradient id="flame" x1="0.5" y1="1" x2="0.5" y2="0">
      <stop offset="0" stop-color="#e2552c"/>
      <stop offset="1" stop-color="#f7c14b"/>
    </linearGradient>
  </defs>
  <rect width="440" height="956" fill="#15100d"/>
  <text x="30" y="48" font-size="15" font-weight="600" fill="#f2e9e2">9:41</text>
  <rect x="360" y="36" width="24" height="12" rx="3" fill="none" stroke="#f2e9e2" stroke-width="1.5" opacity="0.8"/>
  <rect x="362" y="38" width="16" height="8" rx="1.5" fill="#f2e9e2" opacity="0.8"/>

  <text x="30" y="108" font-size="15" fill="#a89a8e">Good evening</text>
  <text x="30" y="140" font-size="27" font-weight="700" fill="#f2e9e2">Ready to light up?</text>

  <!-- hero recipe card -->
  <rect x="30" y="170" width="380" height="200" rx="22" fill="url(#hero)"/>
  <path d="M330 230c14 20 28 30 28 47 0 17-12.5 29-28 29s-28-12-28-29c0-9.5 4-17 10.5-25 3.8 5.3 7.5 8.2 11.3 8.8-1.3-11.3 1.2-21.8 6.2-30.8z" fill="url(#flame)" opacity="0.9"/>
  <rect x="54" y="196" width="96" height="22" rx="11" fill="#e2552c" opacity="0.25"/>
  <text x="68" y="211" font-size="11" font-weight="700" fill="#f08a3c">FEATURED</text>
  <text x="54" y="258" font-size="22" font-weight="700" fill="#f2e9e2">14-hour Brisket</text>
  <text x="54" y="284" font-size="13" fill="#c9b8aa">Low &amp; slow · 110°C dome · 14 h</text>
  <rect x="54" y="310" width="120" height="34" rx="17" fill="#e2552c"/>
  <text x="78" y="332" font-size="13" font-weight="600" fill="#fff">Plan BBQ</text>

  <!-- category chips -->
  <text x="30" y="416" font-size="18" font-weight="700" fill="#f2e9e2">Categories</text>
  <rect x="30" y="436" width="92" height="36" rx="18" fill="#e2552c"/>
  <text x="52" y="459" font-size="13" font-weight="600" fill="#fff">Beef</text>
  <rect x="132" y="436" width="92" height="36" rx="18" fill="#221913"/>
  <text x="152" y="459" font-size="13" fill="#c9b8aa">Pork</text>
  <rect x="234" y="436" width="92" height="36" rx="18" fill="#221913"/>
  <text x="252" y="459" font-size="13" fill="#c9b8aa">Pizza</text>
  <rect x="336" y="436" width="92" height="36" rx="18" fill="#221913"/>
  <text x="352" y="459" font-size="13" fill="#c9b8aa">Fish</text>

  <!-- recipe rows -->
  <text x="30" y="528" font-size="18" font-weight="700" fill="#f2e9e2">Popular tonight</text>
  <g>
    <rect x="30" y="548" width="380" height="84" rx="18" fill="#221913"/>
    <rect x="46" y="564" width="52" height="52" rx="12" fill="#3a2317"/>
    <path d="M72 576c6 8.5 12 12.8 12 20 0 7.2-5.4 12.4-12 12.4s-12-5.2-12-12.4c0-4 1.7-7.2 4.5-10.6 1.6 2.2 3.2 3.4 4.8 3.7-.6-4.8.5-9.3 2.7-13.1z" fill="url(#flame)"/>
    <text x="114" y="586" font-size="15" font-weight="600" fill="#f2e9e2">Reverse Sear Ribeye</text>
    <text x="114" y="608" font-size="12" fill="#a89a8e">250°C dome · 54°C core · 45 min</text>
  </g>
  <g>
    <rect x="30" y="644" width="380" height="84" rx="18" fill="#221913"/>
    <rect x="46" y="660" width="52" height="52" rx="12" fill="#3a2317"/>
    <path d="M72 672c6 8.5 12 12.8 12 20 0 7.2-5.4 12.4-12 12.4s-12-5.2-12-12.4c0-4 1.7-7.2 4.5-10.6 1.6 2.2 3.2 3.4 4.8 3.7-.6-4.8.5-9.3 2.7-13.1z" fill="url(#flame)"/>
    <text x="114" y="682" font-size="15" font-weight="600" fill="#f2e9e2">Pulled Pork</text>
    <text x="114" y="704" font-size="12" fill="#a89a8e">120°C dome · 92°C core · 9 h</text>
  </g>
  <g>
    <rect x="30" y="740" width="380" height="84" rx="18" fill="#221913"/>
    <rect x="46" y="756" width="52" height="52" rx="12" fill="#3a2317"/>
    <path d="M72 768c6 8.5 12 12.8 12 20 0 7.2-5.4 12.4-12 12.4s-12-5.2-12-12.4c0-4 1.7-7.2 4.5-10.6 1.6 2.2 3.2 3.4 4.8 3.7-.6-4.8.5-9.3 2.7-13.1z" fill="url(#flame)"/>
    <text x="114" y="778" font-size="15" font-weight="600" fill="#f2e9e2">Wood-fired Pizza</text>
    <text x="114" y="800" font-size="12" fill="#a89a8e">350°C dome · 4 min per pizza</text>
  </g>

  <!-- tab bar -->
  <rect x="0" y="868" width="440" height="88" fill="#1b1410"/>
  <circle cx="88" cy="904" r="4" fill="#e2552c"/>
  <text x="68" y="932" font-size="10" fill="#e2552c">Home</text>
  <text x="158" y="932" font-size="10" fill="#7a6c60">Recipes</text>
  <text x="252" y="932" font-size="10" fill="#7a6c60">Timers</text>
  <text x="338" y="932" font-size="10" fill="#7a6c60">Guide</text>
</svg>
