<svg xmlns="http://www.w3.org/2000/svg" viewBox="0 0 96 96">
  <defs>
    <linearGradient id="bg" x1="0" y1="0" x2="1" y2="1">
      <stop offset="0" stop-color="#fff4e0"/>
      <stop offset="1" stop-color="#ffe3b3"/>
    </linearGradient>
    <linearGradient id="body" x1="0" y1="0" x2="0" y2="1">
      <stop offset="0" stop-color="#3a3d46"/>
      <stop offset="1" stop-color="#1d1f25"/>
    </linearGradient>
  </defs>
  <rect width="96" height="96" rx="22" fill="url(#bg)"/>
  <!-- air fryer body -->
  <path d="M33 22h30c6 0 10 5 10 11v34c0 6-4 11-10 11H33c-6 0-10-5-10-11V33c0-6 4-11 10-11z" fill="url(#body)"/>
  <!-- basket handle -->
  <rect x="30" y="56" width="36" height="14" rx="5" fill="#0f1013"/>
  <rect x="42" y="61" width="12" height="4" rx="2" fill="#f5a623"/>
  <!-- display -->
  <circle cx="48" cy="40" r="9.5" fill="none" stroke="#f5a623" stroke-width="3"/>
  <path d="M48 34v6l4 2.5" fill="none" stroke="#f5a623" stroke-width="3" stroke-linecap="round"/>
  <!-- heat waves -->
  <path d="M28 14c1.6-2 1.6-4 0-6M38 14c1.6-2 1.6-4 0-6" transform="translate(28 4)" fill="none" stroke="#e2853a" stroke-width="3" stroke-linecap="round" opacity="0"/>
</svg>
