<svg xmlns="http://www.w3.org/2000/svg" viewBox="0 0 440 956" font-family="-apple-system, 'Helvetica Neue', Arial, sans-serif">
  <rect width="440" height="956" fill="#fffaf3"/>
  <text x="30" y="48" font-size="15" font-weight="600" fill="#2b2620">9:41</text>

  <text x="30" y="112" font-size="27" font-weight="700" fill="#2b2620">Cheat sheets</text>
  <text x="30" y="140" font-size="14" fill="#9c8d7d">Times &amp; temps for everyday favourites</text>

  <!-- section: frozen -->
  <text x="30" y="196" font-size="13" font-weight="700" fill="#b3a489">FROZEN SNACKS</text>

  <g>
    <rect x="30" y="214" width="380" height="72" rx="18" fill="#fff" stroke="#efe5d6"/>
    <circle cx="66" cy="250" r="20" fill="#fdeed3"/>
    <rect x="59" y="240" width="4" height="20" rx="2" fill="#f5a623"/>
    <rect x="66" y="238" width="4" height="22" rx="2" fill="#f5a623"/>
    <rect x="73" y="242" width="4" height="18" rx="2" fill="#f5a623"/>
    <text x="102" y="246" font-size="15" font-weight="600" fill="#2b2620">French fries</text>
    <text x="102" y="268" font-size="12" fill="#9c8d7d">Shake halfway</text>
    <text x="318" y="246" font-size="15" font-weight="700" fill="#f5a623">200°C</text>
    <text x="318" y="268" font-size="12" fill="#9c8d7d">16–18 min</text>
  </g>
  <g>
    <rect x="30" y="298" width="380" height="72" rx="18" fill="#fff" stroke="#efe5d6"/>
    <circle cx="66" cy="334" r="20" fill="#fdeed3"/>
    <circle cx="66" cy="334" r="9" fill="#f5a623"/>
    <text x="102" y="330" font-size="15" font-weight="600" fill="#2b2620">Chicken nuggets</text>
    <text x="102" y="352" font-size="12" fill="#9c8d7d">Single layer</text>
    <text x="318" y="330" font-size="15" font-weight="700" fill="#f5a623">190°C</text>
    <text x="318" y="352" font-size="12" fill="#9c8d7d">10–12 min</text>
  </g>

  <!-- section: fresh -->
  <text x="30" y="416" font-size="13" font-weight="700" fill="#b3a489">FRESH</text>

  <g>
    <rect x="30" y="434" width="380" height="72" rx="18" fill="#fff" stroke="#efe5d6"/>
    <circle cx="66" cy="470" r="20" fill="#fdeed3"/>
    <path d="M58 476c2-10 14-12 16-2" fill="none" stroke="#e8794a" stroke-width="3" stroke-linecap="round"/>
    <text x="102" y="466" font-size="15" font-weight="600" fill="#2b2620">Chicken breast</text>
    <text x="102" y="488" font-size="12" fill="#9c8d7d">Core 74°C</text>
    <text x="318" y="466" font-size="15" font-weight="700" fill="#f5a623">185°C</text>
    <text x="318" y="488" font-size="12" fill="#9c8d7d">18–20 min</text>
  </g>
  <g>
    <rect x="30" y="518" width="380" height="72" rx="18" fill="#fff" stroke="#efe5d6"/>
    <circle cx="66" cy="554" r="20" fill="#fdeed3"/>
    <ellipse cx="66" cy="554" rx="11" ry="7" fill="#e8794a"/>
    <text x="102" y="550" font-size="15" font-weight="600" fill="#2b2620">Salmon fillet</text>
    <text x="102" y="572" font-size="12" fill="#9c8d7d">Skin side down</text>
    <text x="318" y="550" font-size="15" font-weight="700" fill="#f5a623">180°C</text>
    <text x="318" y="572" font-size="12" fill="#9c8d7d">8–10 min</text>
  </g>
  <g>
    <rect x="30" y="602" width="380" height="72" rx="18" fill="#fff" stroke="#efe5d6"/>
    <circle cx="66" cy="638" r="20" fill="#fdeed3"/>
    <circle cx="60" cy="638" r="5" fill="#7aa05a"/>
    <circle cx="72" cy="634" r="5" fill="#7aa05a"/>
    <circle cx="68" cy="645" r="5" fill="#7aa05a"/>
    <text x="102" y="634" font-size="15" font-weight="600" fill="#2b2620">Brussels sprouts</text>
    <text x="102" y="656" font-size="12" fill="#9c8d7d">Halved, little oil</text>
    <text x="318" y="634" font-size="15" font-weight="700" fill="#f5a623">185°C</text>
    <text x="318" y="656" font-size="12" fill="#9c8d7d">12–14 min</text>
  </g>
  <g>
    <rect x="30" y="686" width="380" height="72" rx="18" fill="#fff" stroke="#efe5d6"/>
    <circle cx="66" cy="722" r="20" fill="#fdeed3"/>
    <rect x="58" y="714" width="16" height="16" rx="4" fill="#e8b54a"/>
    <text x="102" y="718" font-size="15" font-weight="600" fill="#2b2620">Halloumi cubes</text>
    <text x="102" y="740" font-size="12" fill="#9c8d7d">Turn once</text>
    <text x="318" y="718" font-size="15" font-weight="700" fill="#f5a623">200°C</text>
    <text x="318" y="740" font-size="12" fill="#9c8d7d">8 min</text>
  </g>

  <rect x="30" y="784" width="380" height="56" rx="28" fill="#fff" stroke="#efe5d6"/>
  <text x="142" y="818" font-size="15" font-weight="600" fill="#7c6f61">View all 40+ foods</text>

  <!-- tab bar -->
  <rect x="0" y="868" width="440" height="88" fill="#fff"/>
  <line x1="0" y1="868" x2="440" y2="868" stroke="#efe5d6"/>
  <text x="48" y="932" font-size="10" fill="#a6988a">Recipes</text>
  <text x="142" y="932" font-size="10" fill="#a6988a">Convert</text>
  <circle cx="262" cy="904" r="4" fill="#f5a623"/>
  <text x="240" y="932" font-size="10" fill="#f5a623">Guide</text>
  <text x="330" y="932" font-size="10" fill="#a6988a">Cooks</text>
</svg>
