<svg xmlns="http://www.w3.org/2000/svg" viewBox="0 0 440 956" font-family="-apple-system, 'Helvetica Neue', Arial, sans-serif">
  <rect width="440" height="956" fill="#15100d"/>
  <text x="30" y="48" font-size="15" font-weight="600" fill="#f2e9e2">9:41</text>

  <text x="30" y="116" font-size="27" font-weight="700" fill="#f2e9e2">Timers</text>
  <circle cx="394" cy="108" r="20" fill="#e2552c"/>
  <path d="M394 100v16M386 108h16" stroke="#fff" stroke-width="2.5" stroke-linecap="round"/>

  <!-- timer 1 -->
  <rect x="30" y="156" width="380" height="150" rx="22" fill="#221913"/>
  <circle cx="100" cy="231" r="44" fill="none" stroke="#3a2317" stroke-width="8"/>
  <circle cx="100" cy="231" r="44" fill="none" stroke="#e2552c" stroke-width="8" stroke-linecap="round" stroke-dasharray="276" stroke-dashoffset="69" transform="rotate(-90 100 231)"/>
  <text x="76" y="239" font-size="18" font-weight="700" fill="#f2e9e2">2:15</text>
  <text x="170" y="216" font-size="17" font-weight="700" fill="#f2e9e2">Ribs — wrap check</text>
  <text x="170" y="240" font-size="13" fill="#a89a8e">2 h 15 m remaining</text>
  <rect x="170" y="256" width="78" height="28" rx="14" fill="#33180c"/>
  <text x="192" y="275" font-size="12" font-weight="600" fill="#f08a3c">Pause</text>

  <!-- timer 2 -->
  <rect x="30" y="322" width="380" height="150" rx="22" fill="#221913"/>
  <circle cx="100" cy="397" r="44" fill="none" stroke="#3a2317" stroke-width="8"/>
  <circle cx="100" cy="397" r="44" fill="none" stroke="#f7c14b" stroke-width="8" stroke-linecap="round" stroke-dasharray="276" stroke-dashoffset="180" transform="rotate(-90 100 397)"/>
  <text x="80" y="405" font-size="18" font-weight="700" fill="#f2e9e2">0:24</text>
  <text x="170" y="382" font-size="17" font-weight="700" fill="#f2e9e2">BBQ sauce</text>
  <text x="170" y="406" font-size="13" fill="#a89a8e">24 m remaining</text>
  <rect x="170" y="422" width="78" height="28" rx="14" fill="#33180c"/>
  <text x="192" y="441" font-size="12" font-weight="600" fill="#f08a3c">Pause</text>

  <!-- timer 3 -->
  <rect x="30" y="488" width="380" height="150" rx="22" fill="#221913"/>
  <circle cx="100" cy="563" r="44" fill="none" stroke="#3a2317" stroke-width="8"/>
  <circle cx="100" cy="563" r="44" fill="none" stroke="#4caf6e" stroke-width="8" stroke-linecap="round" stroke-dasharray="276" stroke-dashoffset="240" transform="rotate(-90 100 563)"/>
  <text x="80" y="571" font-size="18" font-weight="700" fill="#f2e9e2">0:08</text>
  <text x="170" y="548" font-size="17" font-weight="700" fill="#f2e9e2">Grilled corn</text>
  <text x="170" y="572" font-size="13" fill="#a89a8e">8 m remaining</text>
  <rect x="170" y="588" width="78" height="28" rx="14" fill="#33180c"/>
  <text x="192" y="607" font-size="12" font-weight="600" fill="#f08a3c">Pause</text>

  <!-- timer 4 done -->
  <rect x="30" y="654" width="380" height="110" rx="22" fill="#16241b"/>
  <circle cx="100" cy="709" r="36" fill="none" stroke="#4caf6e" stroke-width="8"/>
  <path d="M86 709l10 10 18-20" fill="none" stroke="#7dd49b" stroke-width="4" stroke-linecap="round" stroke-linejoin="round"/>
  <text x="170" y="700" font-size="17" font-weight="700" fill="#7dd49b">Cold beer</text>
  <text x="170" y="724" font-size="13" fill="#88a892">Done — you earned it</text>

  <text x="104" y="820" font-size="12" fill="#7a6c60">Timers keep running when the app is closed</text>

  <!-- tab bar -->
  <rect x="0" y="868" width="440" height="88" fill="#1b1410"/>
  <text x="68" y="932" font-size="10" fill="#7a6c60">Home</text>
  <text x="158" y="932" font-size="10" fill="#7a6c60">Recipes</text>
  <circle cx="270" cy="904" r="4" fill="#e2552c"/>
  <text x="252" y="932" font-size="10" fill="#e2552c">Timers</text>
  <text x="338" y="932" font-size="10" fill="#7a6c60">Guide</text>
</svg>
